<svg width="24" height="24" viewBox="0 0 24 24" fill="none" xmlns="http://www.w3.org/2000/svg">
<path fill-rule="evenodd" clip-rule="evenodd" d="M12 24C5.37258 24 0 18.6274 0 12C0 5.37258 5.37258 0 12 0C18.6274 0 24 5.37258 24 12C24 18.6274 18.6274 24 12 24ZM8.12023 16.2146C8.42441 16.4941 8.76372 16.7448 9.13636 16.96C9.509 17.1751 9.89577 17.3436 10.2899 17.4673L10.3419 19.4563C11.4471 19.7024 12.5795 19.6945 13.6582 19.4542L13.7101 17.466C14.5069 17.217 15.2508 16.7944 15.88 16.2148L17.6279 17.1639C17.9972 16.7607 18.3286 16.3113 18.6133 15.8182C18.898 15.3251 19.1214 14.8134 19.286 14.2919L17.5901 13.2528C17.7775 12.4181 17.7715 11.5625 17.5888 10.748L19.2846 9.70892C18.9533 8.65461 18.394 7.66998 17.6283 6.83589L15.8798 7.78536C15.5756 7.50588 15.2363 7.25518 14.8636 7.04004C14.491 6.82489 14.1042 6.65638 13.7101 6.5327L13.6581 4.54373C12.5529 4.29763 11.4205 4.30554 10.3418 4.54579L10.2899 6.53397C9.49311 6.78303 8.74915 7.20564 8.11995 7.78522L6.37211 6.8361C6.00283 7.23933 5.67142 7.68869 5.38671 8.18182C5.10201 8.67495 4.87855 9.18663 4.71398 9.70806L6.40986 10.7472C6.22254 11.5819 6.22852 12.4375 6.41122 13.252L4.71538 14.2911C5.04667 15.3454 5.60601 16.33 6.37174 17.1641L8.12023 16.2146ZM10.3636 14.8343C11.929 15.738 13.9305 15.2017 14.8343 13.6364C15.738 12.071 15.2017 10.0695 13.6364 9.16573C12.071 8.262 10.0695 8.79831 9.16573 10.3636C8.262 11.929 8.79831 13.9305 10.3636 14.8343Z" fill="#47AE61"/>
</svg>
