<svg width="78" height="78" viewBox="0 0 78 78" fill="none" xmlns="http://www.w3.org/2000/svg">
<rect width="78" height="78" rx="39" fill="#47AE61" fill-opacity="0.1"/>
<path d="M39.0014 13.0024C24.7316 13.0024 13.1194 24.6147 13.0039 38.8267C12.9461 45.7594 15.6036 52.3454 20.5143 57.2561C25.3671 62.2245 31.8954 64.9398 38.8281 64.9976H39.0014C53.2712 64.9976 64.8835 53.3853 64.999 39.1733C65.1145 24.8458 53.5023 13.118 39.0014 13.0024ZM51.5958 47.6659L50.4981 48.7635L50.4404 48.8213C48.5339 50.7278 46.9162 51.19 44.3743 50.4389C41.7167 49.6301 39.3481 48.1858 37.2105 46.4526C34.1485 43.9684 30.8555 40.7332 28.7179 37.3824C26.5804 33.916 25.8871 30.2764 28.8913 27.2722L28.949 27.2144L30.0467 26.1168C30.8555 25.3079 32.1843 25.3079 33.0509 26.1168L36.4594 29.5253C37.2683 30.3341 37.2683 31.6629 36.4594 32.5295L34.4374 34.5515L34.4952 34.6093C36.7483 38.0179 39.6947 40.9643 43.1033 43.2174L43.161 43.2752L45.1831 41.2531C45.9919 40.4443 47.3207 40.4443 48.1872 41.2531L51.5958 44.6617C52.4624 45.5283 52.4624 46.857 51.5958 47.6659Z" fill="#47AE61"/>
</svg>
