<svg width="24" height="24" viewBox="0 0 24 24" fill="none" xmlns="http://www.w3.org/2000/svg">
<circle cx="12" cy="12" r="12" fill="#47AE61"/>
<path d="M6.47059 16.0375H17.5294C17.6542 16.0375 17.7739 16.0869 17.8622 16.1748C17.9504 16.2627 18 16.3819 18 16.5063V18.5312C18 18.6556 17.9504 18.7748 17.8622 18.8627C17.7739 18.9506 17.6542 19 17.5294 19H6.47059C6.34578 19 6.22608 18.9506 6.13783 18.8627C6.04958 18.7748 6 18.6556 6 18.5312V16.5063C6 16.4447 6.01217 16.3837 6.03582 16.3269C6.05947 16.27 6.09413 16.2183 6.13783 16.1748C6.18153 16.1313 6.23341 16.0967 6.2905 16.0732C6.3476 16.0496 6.40879 16.0375 6.47059 16.0375ZM7.01177 5.20234C6.96634 5.15651 6.91193 5.12049 6.85191 5.09653C6.7919 5.07257 6.72757 5.06119 6.66294 5.06309C6.59831 5.065 6.53477 5.08014 6.47628 5.10759C6.4178 5.13504 6.36561 5.1742 6.32299 5.22263C6.28037 5.27106 6.24822 5.32772 6.22856 5.38907C6.20889 5.45042 6.20213 5.51515 6.20869 5.57922C6.21526 5.64329 6.23501 5.70533 6.26671 5.76146C6.29841 5.81759 6.34138 5.86661 6.39294 5.90547L8.68 7.87891C8.76552 7.95289 8.87496 7.99367 8.98823 7.99375C9.0841 7.99368 9.17765 7.96445 9.25638 7.90997C9.33511 7.85549 9.39526 7.77836 9.42878 7.6889C9.4623 7.59944 9.46759 7.50192 9.44394 7.40938C9.4203 7.31685 9.36885 7.23371 9.29647 7.17109L7.01177 5.20234ZM15.3247 7.88594L17.6118 5.9125C17.6633 5.87364 17.7063 5.82462 17.738 5.76849C17.7697 5.71236 17.7895 5.65032 17.796 5.58625C17.8026 5.52218 17.7958 5.45745 17.7762 5.3961C17.7565 5.33475 17.7243 5.27809 17.6817 5.22966C17.6391 5.18123 17.5869 5.14207 17.5284 5.11462C17.4699 5.08718 17.4064 5.07203 17.3418 5.07012C17.2771 5.06822 17.2128 5.0796 17.1528 5.10356C17.0928 5.12752 17.0384 5.16354 16.9929 5.20937L14.7082 7.17812C14.6552 7.21631 14.6107 7.26509 14.5777 7.32137C14.5446 7.37764 14.5237 7.44016 14.5163 7.50493C14.5089 7.56971 14.5151 7.63531 14.5346 7.69756C14.554 7.7598 14.5863 7.81731 14.6294 7.86641C14.6724 7.91552 14.7253 7.95514 14.7846 7.98274C14.8439 8.01034 14.9083 8.02532 14.9738 8.02672C15.0392 8.02811 15.1042 8.0159 15.1646 7.99085C15.2251 7.9658 15.2796 7.92847 15.3247 7.88125V7.88594ZM12.4729 6.8875V4.46875C12.4729 4.34443 12.4234 4.2252 12.3351 4.13729C12.2469 4.04939 12.1272 4 12.0024 4C11.8775 4 11.7578 4.04939 11.6696 4.13729C11.5813 4.2252 11.5318 4.34443 11.5318 4.46875V6.8875C11.5318 7.01182 11.5813 7.13105 11.6696 7.21896C11.7578 7.30686 11.8775 7.35625 12.0024 7.35625C12.1272 7.35625 12.2469 7.30686 12.3351 7.21896C12.4234 7.13105 12.4729 7.01182 12.4729 6.8875ZM7.62118 11.3922L7.09647 15.1H16.9082L16.3835 11.3922C16.3295 11.0273 16.146 10.6938 15.8663 10.4521C15.5865 10.2105 15.2291 10.0767 14.8588 10.075H9.14588C8.7756 10.0767 8.41818 10.2105 8.13845 10.4521C7.85872 10.6938 7.6752 11.0273 7.62118 11.3922Z" fill="white"/>
</svg>
