<svg width="24" height="24" viewBox="0 0 24 24" fill="none" xmlns="http://www.w3.org/2000/svg">
<circle cx="12" cy="12" r="12" fill="#47AE61"/>
<path d="M9.12305 16.1589C9.12305 17.764 10.4242 19.0649 12.0287 19.0649C13.6338 19.0649 14.9347 17.7638 14.9347 16.1589C14.9347 15.6807 14.8183 15.2297 14.6131 14.8312H14.6141L14.5942 14.7939C14.5881 14.7827 14.5823 14.7716 14.5764 14.7611L12.0287 10.0212L9.44273 14.8312H9.44464C9.2393 15.2297 9.12305 15.6807 9.12305 16.1589Z" fill="white"/>
<path d="M14.7754 10.0695C14.7754 11.2362 15.7211 12.1817 16.8876 12.1817C18.0543 12.1817 18.9999 11.236 18.9999 10.0695C18.9999 9.72193 18.9152 9.39402 18.7661 9.10436H18.7669L18.7523 9.07721C18.7479 9.06899 18.7437 9.06096 18.7395 9.05331L16.8876 5.60791L15.0077 9.10436H15.0092C14.8599 9.39383 14.7754 9.72193 14.7754 10.0695Z" fill="white"/>
<path d="M5 10.0698C5 11.2365 5.94567 12.1819 7.11217 12.1819C8.27886 12.1819 9.22453 11.2365 9.22453 10.0698C9.22453 9.72217 9.13983 9.39427 8.99069 9.10441H8.99146L8.97693 9.07745C8.97253 9.06923 8.96832 9.06101 8.96412 9.05355L7.11217 5.60815L5.23231 9.10441H5.23384C5.08451 9.39408 5 9.72198 5 10.0698Z" fill="white"/>
</svg>
