<svg width="24" height="24" viewBox="0 0 24 24" fill="none" xmlns="http://www.w3.org/2000/svg">
<circle cx="12" cy="12" r="12" fill="#47AE61"/>
<path d="M4.94287 19.2062C4.70206 19.509 4.63355 19.9213 4.73666 20.4435C4.75041 20.5467 4.87742 20.9559 5.11838 21.6707H2.47856C2.20342 20.9694 2.14172 20.21 2.29291 19.392C2.43729 18.5944 2.73647 18.0034 3.19017 17.6182C3.4717 17.7488 4.77793 19.0824 4.94287 19.2062ZM10.2327 8.89471C10.9751 7.87044 12.2708 7.2586 14.1202 7.05933C16.0038 6.8463 17.5035 7.20885 18.5487 8.11612C18.4659 8.41169 17.5436 9.92566 17.461 10.132C16.6982 9.57534 15.7323 9.338 14.5635 9.42054C13.395 9.51698 12.539 9.89842 11.9959 10.5652C12.319 11.1152 12.3911 11.6617 12.2124 12.2046C12.0543 12.6789 11.7486 13.0744 11.2947 13.3906C11.3359 13.5144 11.3908 13.7515 11.4598 14.1021C11.5217 14.4184 11.5835 14.6521 11.6453 14.8029C11.1572 15.4153 10.4319 16.1883 9.46964 17.1232C8.36963 18.1888 7.62717 18.9415 7.24238 19.3812C6.79549 19.0445 6.54439 18.8655 6.4895 18.8452C6.27647 18.7766 6.02565 18.8965 5.73675 19.2061C5.50288 18.9242 5.12158 18.5256 4.59214 18.0101C4.06979 17.5016 3.68807 17.1064 3.44766 16.8245C3.38583 16.6663 3.43724 16.5425 3.60219 16.453C3.79451 16.3499 3.89095 16.2677 3.89095 16.2058C3.89095 16.1231 3.80146 16.0167 3.62275 15.8861C3.44405 15.7488 3.35817 15.6486 3.36498 15.5872C3.36498 15.2844 3.73281 14.8414 4.46833 14.257C5.24511 13.638 5.66797 13.2016 5.73675 12.9472C5.70215 12.246 5.64393 11.7751 5.56139 11.5345C5.6852 11.4177 5.98758 11.0876 6.46879 10.5446C6.8879 10.07 7.24558 9.7093 7.54115 9.46181C8.47621 8.6714 9.37348 8.48214 10.2327 8.89471ZM7.50029 17.5254C7.50029 17.5254 8.03293 17.0446 9.24285 15.7932C9.57275 15.4565 9.77549 15.1267 9.85136 14.803C9.94738 14.3977 9.86831 13.9542 9.61415 13.4729C9.57274 13.6039 9.40419 13.7858 9.1089 14.0194C8.79957 14.2536 8.6809 14.5263 8.56403 14.8152C8.57779 14.7809 8.40423 15.1713 8.23248 16.0099C8.14993 16.4222 7.93677 16.6044 7.59298 16.5561C7.20792 16.515 7.03964 16.2229 7.08772 15.6796C7.08772 15.6041 7.12205 15.3534 7.19069 14.927C7.2321 14.6111 7.24919 14.3635 7.24252 14.1845C7.3523 14.0059 8.91296 12.246 8.91296 12.246L8.56237 11.9778C6.59622 13.9576 5.47912 15.0748 5.21093 15.3293C6.10458 16.4361 6.86761 17.1684 7.50029 17.5254ZM18.8638 10.2146C19.3996 10.9502 19.7537 11.6756 19.9255 12.3903C20.1597 13.3806 19.8365 13.8891 18.9562 13.9166C18.0488 13.9441 17.6951 13.4629 17.8944 12.4729C18.025 11.8129 18.3481 11.06 18.8638 10.2146Z" fill="white"/>
</svg>
